# xmcd
#
# Track frame offsets: 
#        150
#        18307
#        32675
#        56185
#        75560
#        95612
#        112980
#        131152
#        145277
#        168852
#        189012
#        206975
#        225587
#        242000
#        261715
#        278340
#        296907
#
# Disc length: 4228 seconds
#
# Revision: 22
# Processed by: cddbd v1.5.2PL0 Copyright (c) Steve Scherf et al.
# Submitted via: ExactAudioCopy v1.6
#
DISCID=f4108211
DTITLE=New Order / The Best of New Order
DYEAR=1990
DGENRE=Synthpop
TTITLE0=Let's Go (Nothing for Me)
TTITLE1=Dreams Never End
TTITLE2=Age Of Consent
TTITLE3=Love Vigilantes
TTITLE4=True Faith-94
TTITLE5=Bizarre Love Triangle-94
TTITLE6=1963–95 (actually the arthur baker radio remix)
TTITLE7=Fine Time
TTITLE8=Vanishing Point
TTITLE9=Run
TTITLE10=Round & Round-94
TTITLE11=Regret
TTITLE12=World (The Price Of Love)
TTITLE13=Ruined In A Day
TTITLE14=Touched By The Hand Of God
TTITLE15=Blue Monday-88
TTITLE16=World In Motion
EXTD=NewOrder: Gilder & Stephen Hague\n17 written by NewOrder & Keith Allen\nAll titles produced by NewOrder by Stephen Hagu
EXTD=e& Mike 'Spike' Drake\n1 remix engineer: Mark Plati at Shakedown Sound, NJ,\nd by Shep Pettibone for Mastermix Producti
EXTD=ons\n7 additional production and remix by Arthur Bake by Arthur Baker\n16 remixed by John 'Tokes' Potoker,\n\tproductio
EXTD=n supervisor on remix: QuincyPRS adm. by WB Music Corp. ASCAP/Shakin'\n\tBaker Music BMI (courtesy of Les Disques Du\n\
EXTD=tCrepdm. by WB Music Corp. ASCAP/Cherry\n\tLane Music Publishing Company, Inc. ASCAP\n12,13 & 14 Vit\nCompilation Coord
EXTD=inators: Kevin Laffey & Michael Shamberg\n YEAR: 1990
EXTT0=
EXTT1=
EXTT2=
EXTT3=
EXTT4=
EXTT5=
EXTT6=
EXTT7=
EXTT8=
EXTT9=
EXTT10=
EXTT11=
EXTT12=
EXTT13=
EXTT14=
EXTT15=
EXTT16=
PLAYORDER=
.
